# Blender v2.79 (sub 0) OBJ File: ''
# www.blender.org
mtllib untitled.mtl
o Hallway_rev1
v 62042.800781 7500.000000 -2161.799805
v 62042.800781 7500.000000 -129.800003
v 47957.199219 7500.000000 -129.800003
v 75700.000000 7500.000000 -3000.000000
v 75700.000000 7500.000000 -129.800003
v 62957.199219 7500.000000 -129.800003
v 62957.199219 7500.000000 -2161.799805
v 47957.199219 7500.000000 -2161.799805
v 47042.800781 7500.000000 -129.800003
v 32957.199219 7500.000000 -129.800003
v 47042.800781 7500.000000 -2161.799805
v 32957.199219 7500.000000 -2161.799805
v 32042.800781 7500.000000 -2161.799805
v 4299.999023 7500.000000 -3000.000000
v 17042.800781 7500.000000 -129.800003
v 4299.999023 7500.000000 -129.800003
v 17042.800781 7500.000000 -2161.799805
v 17957.199219 7500.000000 -2161.799805
v 17957.199219 7500.000000 -129.800003
v 32042.800781 7500.000000 -129.800003
v 4299.999023 15500.000000 -3000.000000
v 4299.999023 15500.000000 -129.800003
v 17042.800781 15500.000000 -129.800003
v 47957.199219 15500.000000 -2161.799805
v 47957.199219 15500.000000 -129.800003
v 62042.800781 15500.000000 -129.800003
v 62957.199219 15500.000000 -129.800003
v 75700.000000 15500.000000 -129.800003
v 62957.199219 15500.000000 -2161.799805
v 75700.000000 15500.000000 -3000.000000
v 62042.800781 15500.000000 -2161.799805
v 17957.199219 15500.000000 -129.800003
v 32042.800781 15500.000000 -129.800003
v 17957.199219 15500.000000 -2161.799805
v 32042.800781 15500.000000 -2161.799805
v 17042.800781 15500.000000 -2161.799805
v 32957.199219 15500.000000 -2161.799805
v 47042.800781 15500.000000 -2161.799805
v 47042.800781 15500.000000 -129.800003
v 32957.199219 15500.000000 -129.800003
v 32957.199219 7800.000000 -2161.799805
v 32957.199219 7800.000000 -129.800003
v 47042.800781 7800.000000 -129.800003
v 47957.199219 7800.000000 -129.800003
v 62042.800781 7800.000000 -129.800003
v 47957.199219 7800.000000 -2161.799805
v 62042.800781 7800.000000 -2161.799805
v 4599.998535 7800.000000 -129.800003
v 17042.800781 7800.000000 -129.800003
v 4599.998535 7800.000000 -3000.000000
v 17042.800781 7800.000000 -2161.799805
v 17957.199219 7800.000000 -2161.799805
v 17957.199219 7800.000000 -129.800003
v 32042.800781 7800.000000 -129.800003
v 32042.800781 7800.000000 -2161.799805
v 47042.800781 7800.000000 -2161.799805
v 62957.199219 7800.000000 -129.800003
v 75400.000000 7800.000000 -129.800003
v 62957.199219 7800.000000 -2161.799805
v 75400.000000 7800.000000 -3000.000000
v 62042.800781 15200.000000 -2161.799805
v 62042.800781 15200.000000 -129.800003
v 47957.199219 15200.000000 -129.800003
v 75400.000000 15200.000000 -3000.000000
v 75400.000000 15200.000000 -129.800003
v 62957.199219 15200.000000 -129.800003
v 62957.199219 15200.000000 -2161.799805
v 47957.199219 15200.000000 -2161.799805
v 47042.800781 15200.000000 -129.800003
v 32957.199219 15200.000000 -129.800003
v 47042.800781 15200.000000 -2161.799805
v 32957.199219 15200.000000 -2161.799805
v 32042.800781 15200.000000 -2161.799805
v 4599.998535 15200.000000 -3000.000000
v 17042.800781 15200.000000 -129.800003
v 4599.998535 15200.000000 -129.800003
v 17042.800781 15200.000000 -2161.799805
v 17957.199219 15200.000000 -2161.799805
v 17957.199219 15200.000000 -129.800003
v 32042.800781 15200.000000 -129.800003
v 0.000000 0.000000 0.000000
v 0.000000 0.000000 -64.900002
v 32500.000000 0.000000 0.000000
v 32500.000000 0.000000 -64.900002
v 80000.000000 0.000000 0.000000
v 80000.000000 0.000000 -64.900002
v 40457.199219 0.000000 -129.800003
v 54542.769531 0.000000 -2161.799805
v 54542.769531 0.000000 -129.800003
v 39542.800781 0.000000 -129.800003
v 55457.167969 0.000000 -129.800003
v 39542.800781 0.000000 -2161.799805
v 32500.000000 0.000000 -3000.000000
v 40457.199219 0.000000 -2161.799805
v 80000.000000 0.000000 -3000.000000
v 55457.167969 0.000000 -2161.799805
v 69542.742188 0.000000 -2161.799805
v 69542.742188 0.000000 -129.800003
v 70457.140625 0.000000 -129.800003
v 70457.140625 0.000000 -2161.799805
v 24542.800781 0.000000 -129.800003
v 10457.199219 0.000000 -129.800003
v 24542.800781 0.000000 -2161.799805
v 10457.199219 0.000000 -2161.799805
v 25457.199219 0.000000 -129.800003
v 0.000000 0.000000 -3000.000000
v 9542.800781 0.000000 -2161.799805
v 25457.199219 0.000000 -2161.799805
v 9542.800781 0.000000 -129.800003
v 17500.000000 300.000183 -129.800003
v 24542.800781 300.000183 -129.800003
v 24542.800781 300.000183 -2161.799805
v 299.999237 300.000183 -3000.000000
v 299.999237 300.000183 -129.800003
v 2150.001465 300.000183 -129.800003
v 40457.199219 300.000183 -2161.799805
v 79700.000000 300.000183 -3000.000000
v 39542.800781 300.000183 -2161.799805
v 47500.000000 300.000183 -129.800003
v 54542.769531 300.000183 -129.800003
v 54542.769531 300.000183 -2161.799805
v 10457.199219 300.000183 -2161.799805
v 9542.800781 300.000183 -2161.799805
v 9542.800781 300.000183 -129.800003
v 25457.199219 300.000183 -2161.799805
v 25457.199219 300.000183 -129.800003
v 32500.000000 300.000183 -129.800003
v 55457.167969 300.000183 -2161.799805
v 55457.167969 300.000183 -129.800003
v 62500.000000 300.000183 -129.800003
v 10457.199219 300.000183 -129.800003
v 39542.800781 300.000183 -129.800003
v 70457.140625 300.000183 -129.800003
v 79700.000000 300.000183 -129.800003
v 70457.140625 300.000183 -2161.799805
v 69542.742188 300.000183 -2161.799805
v 40457.199219 300.000183 -129.800003
v 69542.742188 300.000183 -129.800003
v 24542.800781 23000.000000 -2161.799805
v 25457.199219 23000.000000 -2161.799805
v 47499.984375 23000.000000 -3000.000000
v 47499.984375 23000.000000 0.000000
v 80000.000000 23000.000000 0.000000
v 80000.000000 23000.000000 -64.900002
v 47499.984375 23000.000000 -64.900002
v 0.000000 23000.000000 -64.900002
v 0.000000 23000.000000 0.000000
v 40457.199219 23000.000000 -129.800003
v 39542.800781 23000.000000 -129.800003
v 40457.199219 23000.000000 -2161.799805
v 39542.800781 23000.000000 -2161.799805
v 25457.199219 23000.000000 -129.800003
v 24542.800781 23000.000000 -129.800003
v 0.000000 23000.000000 -3000.000000
v 10457.199219 23000.000000 -2161.799805
v 10457.199219 23000.000000 -129.800003
v 9542.800781 23000.000000 -129.800003
v 9542.800781 23000.000000 -2161.799805
v 70457.140625 23000.000000 -129.800003
v 70457.140625 23000.000000 -2161.799805
v 80000.000000 23000.000000 -3000.000000
v 69542.742188 23000.000000 -2161.799805
v 69542.742188 23000.000000 -129.800003
v 55457.167969 23000.000000 -2161.799805
v 55457.167969 23000.000000 -129.800003
v 54542.769531 23000.000000 -129.800003
v 54542.769531 23000.000000 -2161.799805
v 25457.199219 22700.000000 -2161.799805
v 24542.800781 22700.000000 -2161.799805
v 299.999237 22700.000000 -3000.000000
v 55457.167969 22700.000000 -2161.799805
v 54542.769531 22700.000000 -2161.799805
v 17500.000000 22700.000000 -129.800003
v 10457.199219 22700.000000 -129.800003
v 10457.199219 22700.000000 -2161.799805
v 47500.000000 22700.000000 -129.800003
v 40457.199219 22700.000000 -129.800003
v 40457.199219 22700.000000 -2161.799805
v 79700.000000 22700.000000 -3000.000000
v 79700.000000 22700.000000 -129.800003
v 70457.140625 22700.000000 -129.800003
v 9542.800781 22700.000000 -2161.799805
v 24542.800781 22700.000000 -129.800003
v 70457.140625 22700.000000 -2161.799805
v 69542.742188 22700.000000 -2161.799805
v 69542.742188 22700.000000 -129.800003
v 62500.000000 22700.000000 -129.800003
v 9542.800781 22700.000000 -129.800003
v 2150.001465 22700.000000 -129.800003
v 299.999237 22700.000000 -129.800003
v 55457.167969 22700.000000 -129.800003
v 39542.800781 22700.000000 -2161.799805
v 39542.800781 22700.000000 -129.800003
v 32500.000000 22700.000000 -129.800003
v 54542.769531 22700.000000 -129.800003
v 25457.199219 22700.000000 -129.800003
v 0.000000 12414.400391 -129.800003
v 0.000000 11500.000000 -129.800003
v 0.000000 10585.599609 -129.800003
v 0.000000 4257.199707 -129.800003
v 0.000000 4257.199707 -2161.799805
v 0.000000 10585.599609 -2161.799805
v 0.000000 12414.400391 -2161.799805
v 0.000000 18542.800781 -129.800003
v 0.000000 19457.199219 -129.800003
v 0.000000 19457.199219 -2161.799805
v 0.000000 18542.800781 -2161.799805
v 0.000000 3750.000000 -129.800003
v 0.000000 3342.800049 -129.800003
v 0.000000 3342.800049 -2161.799805
v 299.999237 19457.199219 -129.800003
v 299.999237 18542.800781 -2161.799805
v 299.999237 18542.800781 -129.800003
v 299.999237 12414.400391 -129.800003
v 299.999237 19457.199219 -2161.799805
v 299.999237 12414.400391 -2161.799805
v 299.999237 10585.599609 -129.800003
v 299.999237 4257.199707 -129.800003
v 299.999237 10585.599609 -2161.799805
v 299.999237 4257.199707 -2161.799805
v 299.999237 3342.800049 -129.800003
v 299.999237 3342.800049 -2161.799805
v 80000.000000 3750.000000 -129.800003
v 80000.000000 4257.199707 -129.800003
v 80000.000000 12414.400391 -2161.799805
v 80000.000000 18542.800781 -2161.799805
v 80000.000000 12414.400391 -129.800003
v 80000.000000 18542.800781 -129.800003
v 80000.000000 19457.199219 -129.800003
v 80000.000000 19457.199219 -2161.799805
v 80000.000000 10585.599609 -2161.799805
v 80000.000000 3342.800049 -129.800003
v 80000.000000 3342.800049 -2161.799805
v 80000.000000 4257.199707 -2161.799805
v 80000.000000 10585.599609 -129.800003
v 80000.000000 11500.000000 -129.800003
v 79700.000000 3342.800049 -129.800003
v 79700.000000 4257.199707 -129.800003
v 79700.000000 10585.599609 -129.800003
v 79700.000000 4257.199707 -2161.799805
v 79700.000000 10585.599609 -2161.799805
v 79700.000000 3342.800049 -2161.799805
v 79700.000000 12414.400391 -2161.799805
v 79700.000000 19457.199219 -129.800003
v 79700.000000 19457.199219 -2161.799805
v 79700.000000 18542.800781 -2161.799805
v 79700.000000 18542.800781 -129.800003
v 79700.000000 12414.400391 -129.800003
v 62500.000000 3750.000000 -129.800003
v 62500.000000 11500.000000 -129.800003
v 75700.000000 11500.000000 -129.800003
v 75400.000000 11500.000000 -129.800003
v 47500.000000 11500.000000 -129.800003
v 32500.000000 11500.000000 -129.800003
v 17500.000000 11500.000000 -129.800003
v 2150.001465 11500.000000 -129.800003
v 2150.001465 3750.000000 -129.800003
v 17500.000000 3750.000000 -129.800003
v 32500.000000 3750.000000 -129.800003
v 47500.000000 3750.000000 -129.800003
v 4299.999023 11500.000000 -129.800003
v 4599.998535 11500.000000 -129.800003
vn 0.0000 -1.0000 0.0000
vn 0.0000 1.0000 0.0000
vn 0.0000 1.0000 -0.0001
vn 0.0000 -1.0000 -0.0001
vn 0.0000 1.0000 0.0004
vn -1.0000 0.0000 0.0000
vn 1.0000 0.0000 0.0000
vn 0.0000 0.0000 -1.0000
vn 0.0000 0.0000 1.0000
usemtl None
s off
f 1//1 2//1 3//1
f 4//1 5//1 6//1
f 6//1 7//1 4//1
f 4//1 7//1 1//1
f 4//1 1//1 8//1
f 8//1 1//1 3//1
f 9//1 10//1 11//1
f 11//1 10//1 12//1
f 13//1 14//1 12//1
f 12//1 14//1 4//1
f 12//1 4//1 11//1
f 11//1 4//1 8//1
f 15//1 16//1 17//1
f 17//1 16//1 14//1
f 17//1 14//1 18//1
f 18//1 14//1 13//1
f 18//1 13//1 19//1
f 19//1 13//1 20//1
f 21//2 22//2 23//2
f 24//2 25//2 26//2
f 27//2 28//2 29//2
f 29//2 28//2 30//2
f 29//2 30//2 31//2
f 32//2 33//2 34//2
f 34//2 33//2 35//2
f 23//2 36//2 21//2
f 21//2 36//2 34//2
f 21//2 34//2 30//2
f 30//2 34//2 35//2
f 30//2 35//2 37//2
f 26//2 31//2 24//2
f 24//2 31//2 30//2
f 24//2 30//2 38//2
f 38//2 30//2 37//2
f 38//2 37//2 39//2
f 39//2 37//2 40//2
f 41//2 42//2 43//2
f 44//2 45//2 46//2
f 46//2 45//2 47//2
f 48//2 49//2 50//2
f 50//2 49//2 51//2
f 50//2 51//2 52//2
f 53//2 54//2 52//2
f 52//2 54//2 55//2
f 52//2 55//2 50//2
f 50//2 55//2 41//2
f 50//2 41//2 56//2
f 56//2 41//2 43//2
f 57//2 58//2 59//2
f 59//2 58//2 60//2
f 59//2 60//2 47//2
f 47//2 60//2 50//2
f 47//2 50//2 46//2
f 46//3 50//3 56//3
f 61//1 62//1 63//1
f 64//1 65//1 66//1
f 66//1 67//1 64//1
f 64//1 67//1 61//1
f 64//1 61//1 68//1
f 68//1 61//1 63//1
f 69//1 70//1 71//1
f 71//1 70//1 72//1
f 73//4 74//4 72//4
f 72//1 74//1 64//1
f 72//1 64//1 71//1
f 71//4 64//4 68//4
f 75//1 76//1 77//1
f 77//1 76//1 74//1
f 77//1 74//1 78//1
f 78//1 74//1 73//1
f 78//1 73//1 79//1
f 79//1 73//1 80//1
f 81//1 82//1 83//1
f 83//1 82//1 84//1
f 83//1 84//1 85//1
f 85//1 84//1 86//1
f 87//1 88//1 89//1
f 84//1 90//1 87//1
f 87//1 89//1 84//1
f 84//1 89//1 91//1
f 84//1 91//1 86//1
f 92//1 93//1 94//1
f 94//1 93//1 95//1
f 87//1 94//1 88//1
f 88//1 94//1 95//1
f 88//1 95//1 96//1
f 96//1 95//1 97//1
f 96//1 97//1 91//1
f 91//1 97//1 98//1
f 91//1 98//1 86//1
f 86//1 98//1 99//1
f 86//1 99//1 95//1
f 95//1 99//1 100//1
f 95//1 100//1 97//1
f 101//1 102//1 103//1
f 103//1 102//1 104//1
f 105//1 93//1 84//1
f 84//1 93//1 92//1
f 84//1 92//1 90//1
f 82//1 106//1 107//1
f 105//1 108//1 93//1
f 93//1 108//1 103//1
f 93//1 103//1 106//1
f 106//1 103//1 104//1
f 106//1 104//1 107//1
f 107//1 109//1 82//1
f 82//1 109//1 102//1
f 82//1 102//1 84//1
f 84//1 102//1 101//1
f 84//1 101//1 105//1
f 110//2 111//2 112//2
f 113//2 114//2 115//2
f 116//2 117//2 118//2
f 118//2 117//2 113//2
f 119//2 120//2 121//2
f 122//2 113//2 123//2
f 123//2 113//2 115//2
f 123//2 115//2 124//2
f 125//2 126//2 127//2
f 128//2 129//2 130//2
f 131//2 110//2 122//2
f 122//2 110//2 112//2
f 122//2 112//2 113//2
f 113//2 112//2 125//2
f 113//2 125//2 118//2
f 118//2 125//2 127//2
f 118//2 127//2 132//2
f 133//2 134//2 135//2
f 135//2 134//2 117//2
f 135//2 117//2 136//2
f 137//2 119//2 116//2
f 116//2 119//2 121//2
f 116//2 121//2 117//2
f 117//2 121//2 128//2
f 117//2 128//2 136//2
f 136//2 128//2 130//2
f 136//2 130//2 138//2
f 139//2 140//2 141//2
f 142//2 143//2 144//2
f 145//2 146//2 147//2
f 145//5 148//5 149//5
f 148//2 145//2 150//2
f 150//2 145//2 141//2
f 150//2 141//2 151//2
f 151//2 141//2 140//2
f 151//2 140//2 149//2
f 149//2 140//2 152//2
f 149//2 152//2 145//2
f 145//3 152//3 153//3
f 145//2 153//2 146//2
f 141//2 154//2 139//2
f 139//2 154//2 155//2
f 139//2 155//2 153//2
f 153//2 155//2 156//2
f 153//2 156//2 146//2
f 146//3 156//3 157//3
f 146//2 157//2 154//2
f 154//2 157//2 158//2
f 154//2 158//2 155//2
f 159//2 144//2 160//2
f 160//2 144//2 161//2
f 160//2 161//2 162//2
f 159//2 163//2 144//2
f 144//2 163//2 145//2
f 144//2 145//2 142//2
f 142//2 145//2 147//2
f 161//2 141//2 162//2
f 162//2 141//2 164//2
f 162//2 164//2 163//2
f 163//2 164//2 165//2
f 163//2 165//2 145//2
f 145//5 165//5 166//5
f 145//2 166//2 141//2
f 141//2 166//2 167//2
f 141//2 167//2 164//2
f 168//1 169//1 170//1
f 171//1 172//1 170//1
f 173//1 174//1 175//1
f 176//1 177//1 178//1
f 179//1 180//1 181//1
f 182//1 170//1 175//1
f 175//1 170//1 169//1
f 175//1 169//1 173//1
f 173//1 169//1 183//1
f 181//1 184//1 179//1
f 179//1 184//1 185//1
f 179//1 185//1 170//1
f 185//1 186//1 187//1
f 182//1 188//1 170//1
f 170//1 188//1 189//1
f 170//1 189//1 190//1
f 170//1 185//1 171//1
f 171//1 185//1 187//1
f 171//1 187//1 191//1
f 192//1 193//1 194//1
f 195//1 176//1 172//1
f 172//1 176//1 178//1
f 172//1 178//1 170//1
f 170//4 178//4 192//4
f 170//1 192//1 168//1
f 168//1 192//1 194//1
f 168//1 194//1 196//1
f 197//6 198//6 147//6
f 147//6 198//6 199//6
f 81//6 147//6 200//6
f 200//6 147//6 199//6
f 200//6 199//6 201//6
f 201//6 199//6 202//6
f 203//6 197//6 204//6
f 204//6 197//6 147//6
f 204//6 147//6 205//6
f 205//6 147//6 146//6
f 205//6 146//6 206//6
f 206//6 146//6 154//6
f 206//6 154//6 207//6
f 207//6 154//6 203//6
f 207//6 203//6 204//6
f 200//6 208//6 81//6
f 81//6 208//6 209//6
f 81//6 209//6 82//6
f 82//6 209//6 210//6
f 82//6 210//6 106//6
f 106//6 210//6 201//6
f 106//6 201//6 154//6
f 154//6 201//6 202//6
f 154//6 202//6 203//6
f 170//7 190//7 211//7
f 212//7 213//7 214//7
f 211//7 215//7 170//7
f 170//7 215//7 212//7
f 170//7 212//7 216//7
f 216//7 212//7 214//7
f 217//7 218//7 219//7
f 219//7 218//7 220//7
f 221//7 114//7 222//7
f 222//7 114//7 113//7
f 222//7 113//7 220//7
f 220//7 113//7 170//7
f 220//7 170//7 219//7
f 219//7 170//7 216//7
f 223//7 224//7 85//7
f 225//7 226//7 227//7
f 227//7 226//7 228//7
f 227//7 228//7 85//7
f 85//7 228//7 143//7
f 143//7 228//7 229//7
f 143//7 229//7 144//7
f 144//7 229//7 230//7
f 144//7 230//7 161//7
f 161//7 230//7 226//7
f 161//7 226//7 95//7
f 95//7 226//7 225//7
f 95//7 225//7 231//7
f 223//7 85//7 232//7
f 232//7 85//7 86//7
f 232//7 86//7 233//7
f 233//7 86//7 95//7
f 233//7 95//7 234//7
f 234//7 95//7 231//7
f 234//7 231//7 224//7
f 224//7 231//7 235//7
f 224//7 235//7 85//7
f 85//7 235//7 236//7
f 85//7 236//7 227//7
f 170//8 141//8 179//8
f 179//8 141//8 161//8
f 179//8 161//8 117//8
f 161//8 95//8 117//8
f 117//8 95//8 93//8
f 117//8 93//8 113//8
f 113//8 93//8 106//8
f 113//8 106//8 170//8
f 170//8 106//8 154//8
f 170//8 154//8 141//8
f 85//9 143//9 83//9
f 83//9 143//9 142//9
f 83//9 142//9 81//9
f 81//9 142//9 147//9
f 117//6 134//6 237//6
f 238//6 239//6 240//6
f 240//6 239//6 241//6
f 237//6 242//6 117//6
f 117//6 242//6 240//6
f 117//6 240//6 179//6
f 179//6 240//6 241//6
f 179//6 241//6 243//6
f 244//6 180//6 245//6
f 245//6 180//6 179//6
f 245//6 179//6 246//6
f 246//6 179//6 243//6
f 246//6 243//6 247//6
f 247//6 243//6 248//6
f 211//8 190//8 189//8
f 196//8 194//8 33//8
f 247//8 248//8 186//8
f 138//8 130//8 249//8
f 91//8 89//8 129//8
f 129//8 89//8 120//8
f 223//8 232//8 237//8
f 237//8 134//8 133//8
f 58//8 57//8 250//8
f 250//8 57//8 6//8
f 250//8 6//8 249//8
f 99//8 98//8 133//8
f 133//8 98//8 138//8
f 133//8 138//8 237//8
f 237//8 138//8 249//8
f 237//8 249//8 223//8
f 223//8 249//8 6//8
f 223//8 6//8 5//8
f 236//8 235//8 239//8
f 224//8 223//8 238//8
f 238//8 223//8 5//8
f 238//8 5//8 239//8
f 239//8 5//8 251//8
f 239//8 251//8 236//8
f 236//8 251//8 28//8
f 27//8 66//8 250//8
f 58//8 250//8 252//8
f 252//8 250//8 66//8
f 252//8 66//8 65//8
f 181//8 180//8 244//8
f 229//8 228//8 244//8
f 244//8 228//8 247//8
f 244//8 247//8 181//8
f 181//8 247//8 186//8
f 181//8 186//8 159//8
f 159//8 186//8 163//8
f 227//8 236//8 248//8
f 248//8 236//8 28//8
f 248//8 28//8 186//8
f 186//8 28//8 187//8
f 176//8 195//8 26//8
f 166//8 165//8 195//8
f 195//8 165//8 191//8
f 195//8 191//8 26//8
f 26//8 191//8 187//8
f 62//8 250//8 63//8
f 63//8 250//8 253//8
f 63//8 253//8 25//8
f 28//8 27//8 187//8
f 187//8 27//8 250//8
f 187//8 250//8 26//8
f 26//8 250//8 62//8
f 193//8 149//8 148//8
f 176//8 39//8 177//8
f 177//8 39//8 40//8
f 69//8 253//8 70//8
f 70//8 253//8 254//8
f 70//8 254//8 40//8
f 26//8 25//8 176//8
f 176//8 25//8 253//8
f 176//8 253//8 39//8
f 39//8 253//8 69//8
f 173//8 183//8 32//8
f 80//8 254//8 79//8
f 79//8 254//8 255//8
f 79//8 255//8 32//8
f 148//8 177//8 193//8
f 193//8 177//8 40//8
f 193//8 40//8 194//8
f 194//8 40//8 254//8
f 194//8 254//8 33//8
f 33//8 254//8 80//8
f 153//8 152//8 183//8
f 183//8 152//8 196//8
f 183//8 196//8 32//8
f 32//8 196//8 33//8
f 76//8 75//8 255//8
f 255//8 75//8 23//8
f 32//8 255//8 173//8
f 173//8 255//8 23//8
f 173//8 23//8 174//8
f 157//8 156//8 188//8
f 188//8 156//8 174//8
f 188//8 174//8 22//8
f 22//8 174//8 23//8
f 213//8 204//8 205//8
f 205//8 211//8 213//8
f 213//8 211//8 189//8
f 213//8 189//8 214//8
f 214//8 189//8 256//8
f 214//8 256//8 197//8
f 197//8 256//8 198//8
f 208//8 200//8 218//8
f 114//8 221//8 257//8
f 199//8 198//8 217//8
f 217//8 198//8 256//8
f 217//8 256//8 218//8
f 218//8 256//8 257//8
f 218//8 257//8 208//8
f 208//8 257//8 221//8
f 208//8 221//8 209//8
f 131//8 257//8 110//8
f 110//8 257//8 258//8
f 110//8 258//8 111//8
f 102//8 109//8 131//8
f 131//8 109//8 124//8
f 131//8 124//8 257//8
f 257//8 124//8 115//8
f 257//8 115//8 114//8
f 132//8 127//8 259//8
f 259//8 127//8 126//8
f 105//8 101//8 126//8
f 126//8 101//8 111//8
f 126//8 111//8 259//8
f 259//8 111//8 258//8
f 137//8 87//8 90//8
f 90//8 132//8 137//8
f 137//8 132//8 259//8
f 137//8 259//8 119//8
f 119//8 259//8 260//8
f 119//8 260//8 120//8
f 120//8 260//8 249//8
f 120//8 249//8 129//8
f 129//8 249//8 130//8
f 15//8 258//8 16//8
f 16//8 258//8 257//8
f 16//8 257//8 261//8
f 261//8 257//8 256//8
f 261//8 256//8 22//8
f 22//8 256//8 189//8
f 22//8 189//8 188//8
f 76//8 255//8 262//8
f 262//8 255//8 49//8
f 262//8 49//8 48//8
f 253//8 44//8 3//8
f 44//8 253//8 45//8
f 45//8 253//8 250//8
f 45//8 250//8 2//8
f 2//8 250//8 249//8
f 2//8 249//8 3//8
f 3//8 249//8 260//8
f 3//8 260//8 253//8
f 254//8 42//8 10//8
f 42//8 254//8 43//8
f 43//8 254//8 253//8
f 43//8 253//8 9//8
f 9//8 253//8 260//8
f 9//8 260//8 10//8
f 10//8 260//8 259//8
f 10//8 259//8 254//8
f 255//8 53//8 19//8
f 53//8 255//8 54//8
f 54//8 255//8 254//8
f 54//8 254//8 20//8
f 20//8 254//8 259//8
f 20//8 259//8 19//8
f 19//8 259//8 258//8
f 19//8 258//8 255//8
f 255//8 258//8 15//8
f 255//8 15//8 49//8
f 22//6 21//6 261//6
f 261//6 21//6 14//6
f 261//6 14//6 16//6
f 30//7 28//7 4//7
f 4//7 28//7 251//7
f 4//7 251//7 5//7
f 60//8 4//8 50//8
f 50//8 4//8 14//8
f 50//8 14//8 74//8
f 74//8 14//8 21//8
f 74//8 21//8 64//8
f 64//8 21//8 30//8
f 64//8 30//8 60//8
f 60//8 30//8 4//8
f 74//7 76//7 50//7
f 50//7 76//7 262//7
f 50//7 262//7 48//7
f 65//6 64//6 252//6
f 252//6 64//6 60//6
f 252//6 60//6 58//6
f 225//9 243//9 231//9
f 231//9 243//9 241//9
f 227//1 248//1 225//1
f 225//1 248//1 243//1
f 231//2 241//2 235//2
f 235//2 241//2 239//2
f 234//9 240//9 233//9
f 233//9 240//9 242//9
f 224//1 238//1 234//1
f 234//1 238//1 240//1
f 233//2 242//2 232//2
f 232//2 242//2 237//2
f 230//9 245//9 226//9
f 226//9 245//9 246//9
f 229//1 244//1 230//1
f 230//1 244//1 245//1
f 226//2 246//2 228//2
f 228//2 246//2 247//2
f 203//9 202//9 216//9
f 216//9 202//9 219//9
f 197//1 203//1 214//1
f 214//1 203//1 216//1
f 202//2 199//2 219//2
f 219//2 199//2 217//2
f 201//9 210//9 220//9
f 220//9 210//9 222//9
f 200//1 201//1 218//1
f 218//1 201//1 220//1
f 210//2 209//2 222//2
f 222//2 209//2 221//2
f 206//9 207//9 215//9
f 215//9 207//9 212//9
f 205//1 206//1 211//1
f 211//1 206//1 215//1
f 207//2 204//2 212//2
f 212//2 204//2 213//2
f 150//9 151//9 178//9
f 178//9 151//9 192//9
f 150//6 178//6 148//6
f 148//6 178//6 177//6
f 151//7 149//7 192//7
f 192//7 149//7 193//7
f 155//9 158//9 175//9
f 175//9 158//9 182//9
f 158//7 157//7 182//7
f 182//7 157//7 188//7
f 155//6 175//6 156//6
f 156//6 175//6 174//6
f 160//9 162//9 184//9
f 184//9 162//9 185//9
f 160//6 184//6 159//6
f 159//6 184//6 181//6
f 162//7 163//7 185//7
f 185//7 163//7 186//7
f 164//9 167//9 171//9
f 171//9 167//9 172//9
f 164//6 171//6 165//6
f 165//6 171//6 191//6
f 167//7 166//7 172//7
f 172//7 166//7 195//7
f 140//9 139//9 168//9
f 168//9 139//9 169//9
f 140//6 168//6 152//6
f 152//6 168//6 196//6
f 139//7 153//7 169//7
f 169//7 153//7 183//7
f 94//9 116//9 92//9
f 92//9 116//9 118//9
f 94//6 87//6 116//6
f 116//6 87//6 137//6
f 92//7 118//7 90//7
f 90//7 118//7 132//7
f 104//9 122//9 107//9
f 107//9 122//9 123//9
f 104//6 102//6 122//6
f 122//6 102//6 131//6
f 107//7 123//7 109//7
f 109//7 123//7 124//7
f 100//9 135//9 97//9
f 97//9 135//9 136//9
f 97//7 136//7 98//7
f 98//7 136//7 138//7
f 100//6 99//6 135//6
f 135//6 99//6 133//6
f 96//9 128//9 88//9
f 88//9 128//9 121//9
f 88//7 121//7 89//7
f 89//7 121//7 120//7
f 96//6 91//6 128//6
f 128//6 91//6 129//6
f 108//9 125//9 103//9
f 103//9 125//9 112//9
f 103//7 112//7 101//7
f 101//7 112//7 111//7
f 108//6 105//6 125//6
f 125//6 105//6 126//6
f 34//6 78//6 32//6
f 32//6 78//6 79//6
f 36//9 77//9 34//9
f 34//9 77//9 78//9
f 23//7 75//7 36//7
f 36//7 75//7 77//7
f 37//6 72//6 40//6
f 40//6 72//6 70//6
f 35//9 73//9 37//9
f 37//9 73//9 72//9
f 33//7 80//7 35//7
f 35//7 80//7 73//7
f 52//9 51//9 18//9
f 18//9 51//9 17//9
f 51//7 49//7 17//7
f 17//7 49//7 15//7
f 53//6 52//6 19//6
f 19//6 52//6 18//6
f 41//9 55//9 12//9
f 12//9 55//9 13//9
f 55//7 54//7 13//7
f 13//7 54//7 20//7
f 42//6 41//6 10//6
f 10//6 41//6 12//6
f 29//9 31//9 67//9
f 67//9 31//9 61//9
f 31//7 26//7 61//7
f 61//7 26//7 62//7
f 27//6 29//6 66//6
f 66//6 29//6 67//6
f 24//9 38//9 68//9
f 68//9 38//9 71//9
f 38//7 39//7 71//7
f 71//7 39//7 69//7
f 25//6 24//6 63//6
f 63//6 24//6 68//6
f 59//6 7//6 57//6
f 57//6 7//6 6//6
f 45//7 2//7 47//7
f 47//7 2//7 1//7
f 47//9 1//9 59//9
f 59//9 1//9 7//9
f 46//6 8//6 44//6
f 44//6 8//6 3//6
f 43//7 9//7 56//7
f 56//7 9//7 11//7
f 56//9 11//9 46//9
f 46//9 11//9 8//9
