# Blender v2.90.1 OBJ File: ''
# www.blender.org
mtllib Hallway1_Roof.mtl
o Part_1_b
v 2.000000 0.099999 25.000000
v 0.000000 0.099999 25.000000
v 2.000000 -0.000001 25.000000
v 0.000000 -0.000001 25.000000
v 2.000000 0.099999 30.000000
v 2.000000 -0.000001 30.000000
v 7.000000 0.099999 30.000000
v 7.000000 -0.000001 30.000000
v 7.000000 0.099999 25.000000
v 7.000000 -0.000001 25.000000
v 14.000000 0.099999 25.000000
v 14.000000 -0.000001 25.000000
v 14.000000 0.100000 0.000000
v 14.000000 0.000000 0.000000
v 0.000000 0.100000 0.000000
v 0.000000 0.000000 0.000000
vn 0.0000 0.0000 1.0000
vn -1.0000 0.0000 0.0000
vn 1.0000 0.0000 0.0000
vn 0.0000 0.0000 -1.0000
vn 0.0000 1.0000 0.0000
vn 0.0000 -1.0000 -0.0000
usemtl None
s off
f 1//1 2//1 3//1
f 3//1 2//1 4//1
f 5//2 1//2 6//2
f 6//2 1//2 3//2
f 7//1 5//1 8//1
f 8//1 5//1 6//1
f 9//3 7//3 10//3
f 10//3 7//3 8//3
f 11//1 9//1 12//1
f 12//1 9//1 10//1
f 13//3 11//3 14//3
f 14//3 11//3 12//3
f 15//4 13//4 16//4
f 16//4 13//4 14//4
f 2//2 15//2 4//2
f 4//2 15//2 16//2
f 15//5 2//5 13//5
f 13//5 2//5 1//5
f 11//5 13//5 9//5
f 9//5 13//5 1//5
f 9//5 1//5 7//5
f 7//5 1//5 5//5
f 14//6 12//6 16//6
f 16//6 12//6 10//6
f 4//6 16//6 3//6
f 3//6 16//6 10//6
f 3//6 10//6 6//6
f 6//6 10//6 8//6
